REM DIRINDEX 1\2,1\3,1\4,1\5
REM DIRNAME folder01,folder02,folder03,folder04,folder05
TITLE ""
FILE "P1Q_j_1747-1760.mp3" MP3
  TRACK 01 AUDIO
    TITLE "3:cjc005_0590"
    INDEX 01 00:00:00
  TRACK 02 AUDIO
    TITLE "0:"
    INDEX 01 00:01:03
  TRACK 03 AUDIO
    TITLE "4:cjc005_0591"
    INDEX 01 00:01:40
  TRACK 04 AUDIO
    TITLE "0:"
    INDEX 01 00:02:69
  TRACK 05 AUDIO
    TITLE "5:cjc005_0592"
    INDEX 01 00:03:19
  TRACK 06 AUDIO
    TITLE "0:"
    INDEX 01 00:06:51
  TRACK 07 AUDIO
    TITLE "3:cjc005_0593"
    INDEX 01 00:07:31
  TRACK 08 AUDIO
    TITLE "0:"
    INDEX 01 00:08:56
  TRACK 09 AUDIO
    TITLE "4:cjc005_0594"
    INDEX 01 00:09:18
  TRACK 10 AUDIO
    TITLE "0:"
    INDEX 01 00:11:15
  TRACK 11 AUDIO
    TITLE "5:cjc005_0595"
    INDEX 01 00:11:46
  TRACK 12 AUDIO
    TITLE "0:"
    INDEX 01 00:16:36
  TRACK 13 AUDIO
    TITLE "3:cjc005_0596"
    INDEX 01 00:17:18
  TRACK 14 AUDIO
    TITLE "0:"
    INDEX 01 00:18:39
  TRACK 15 AUDIO
    TITLE "4:cjc005_0597"
    INDEX 01 00:19:03
  TRACK 16 AUDIO
    TITLE "0:"
    INDEX 01 00:20:45
  TRACK 17 AUDIO
    TITLE "5:cjc005_0598"
    INDEX 01 00:20:73
  TRACK 18 AUDIO
    TITLE "0:"
    INDEX 01 00:24:57
  TRACK 19 AUDIO
    TITLE "3:cjc005_0599"
    INDEX 01 00:25:43
  TRACK 20 AUDIO
    TITLE "0:"
    INDEX 01 00:26:50
  TRACK 21 AUDIO
    TITLE "4:cjc005_0600"
    INDEX 01 00:27:04
  TRACK 22 AUDIO
    TITLE "0:"
    INDEX 01 00:28:33
  TRACK 23 AUDIO
    TITLE "5:cjc005_0601"
    INDEX 01 00:28:60
  TRACK 24 AUDIO
    TITLE "0:"
    INDEX 01 00:32:11
  TRACK 25 AUDIO
    TITLE "3:cjc005_0602"
    INDEX 01 00:32:68
  TRACK 26 AUDIO
    TITLE "0:"
    INDEX 01 00:34:14
  TRACK 27 AUDIO
    TITLE "4:cjc005_0603"
    INDEX 01 00:34:57
  TRACK 28 AUDIO
    TITLE "0:"
    INDEX 01 00:36:36
  TRACK 29 AUDIO
    TITLE "5:cjc005_0604"
    INDEX 01 00:36:62
  TRACK 30 AUDIO
    TITLE "0:"
    INDEX 01 00:39:27
  TRACK 31 AUDIO
    TITLE "3:cjc005_0605"
    INDEX 01 00:40:05
  TRACK 32 AUDIO
    TITLE "0:"
    INDEX 01 00:41:30
  TRACK 33 AUDIO
    TITLE "4:cjc005_0606"
    INDEX 01 00:41:61
  TRACK 34 AUDIO
    TITLE "0:"
    INDEX 01 00:43:17
  TRACK 35 AUDIO
    TITLE "5:cjc005_0607"
    INDEX 01 00:43:40
  TRACK 36 AUDIO
    TITLE "0:"
    INDEX 01 00:46:33
  TRACK 37 AUDIO
    TITLE "3:cjc005_0608"
    INDEX 01 00:47:21
  TRACK 38 AUDIO
    TITLE "0:"
    INDEX 01 00:48:49
  TRACK 39 AUDIO
    TITLE "4:cjc005_0609"
    INDEX 01 00:49:02
  TRACK 40 AUDIO
    TITLE "0:"
    INDEX 01 00:50:62
  TRACK 41 AUDIO
    TITLE "5:cjc005_0610"
    INDEX 01 00:51:13
  TRACK 42 AUDIO
    TITLE "0:"
    INDEX 01 00:55:18
  TRACK 43 AUDIO
    TITLE "3:cjc005_0611"
    INDEX 01 00:55:73
  TRACK 44 AUDIO
    TITLE "0:"
    INDEX 01 00:57:15
  TRACK 45 AUDIO
    TITLE "4:cjc005_0612"
    INDEX 01 00:57:39
  TRACK 46 AUDIO
    TITLE "0:"
    INDEX 01 00:59:00
  TRACK 47 AUDIO
    TITLE "5:cjc005_0613"
    INDEX 01 00:59:26
  TRACK 48 AUDIO
    TITLE "0:"
    INDEX 01 01:03:33
  TRACK 49 AUDIO
    TITLE "3:cjc005_0614"
    INDEX 01 01:04:15
  TRACK 50 AUDIO
    TITLE "0:"
    INDEX 01 01:05:36
  TRACK 51 AUDIO
    TITLE "4:cjc005_0615"
    INDEX 01 01:05:69
  TRACK 52 AUDIO
    TITLE "0:"
    INDEX 01 01:07:14
  TRACK 53 AUDIO
    TITLE "5:cjc005_0616"
    INDEX 01 01:07:39
  TRACK 54 AUDIO
    TITLE "0:"
    INDEX 01 01:11:35
  TRACK 55 AUDIO
    TITLE "3:cjc005_0617"
    INDEX 01 01:12:24
  TRACK 56 AUDIO
    TITLE "0:"
    INDEX 01 01:13:30
  TRACK 57 AUDIO
    TITLE "4:cjc005_0618"
    INDEX 01 01:13:57
  TRACK 58 AUDIO
    TITLE "0:"
    INDEX 01 01:14:57
  TRACK 59 AUDIO
    TITLE "5:cjc005_0619"
    INDEX 01 01:15:05
  TRACK 60 AUDIO
    TITLE "0:"
    INDEX 01 01:17:51
  TRACK 61 AUDIO
    TITLE "3:cjc005_0620"
    INDEX 01 01:18:33
  TRACK 62 AUDIO
    TITLE "0:"
    INDEX 01 01:19:48
  TRACK 63 AUDIO
    TITLE "4:cjc005_0621"
    INDEX 01 01:20:10
  TRACK 64 AUDIO
    TITLE "0:"
    INDEX 01 01:21:39
  TRACK 65 AUDIO
    TITLE "5:cjc005_0622"
    INDEX 01 01:21:63
  TRACK 66 AUDIO
    TITLE "0:"
    INDEX 01 01:24:63
  TRACK 67 AUDIO
    TITLE "3:cjc005_0623"
    INDEX 01 01:25:43
  TRACK 68 AUDIO
    TITLE "0:"
    INDEX 01 01:27:50
  TRACK 69 AUDIO
    TITLE "4:cjc005_0624"
    INDEX 01 01:27:73
  TRACK 70 AUDIO
    TITLE "0:"
    INDEX 01 01:30:30
  TRACK 71 AUDIO
    TITLE "5:cjc005_0625"
    INDEX 01 01:30:56
  TRACK 72 AUDIO
    TITLE "0:"
    INDEX 01 01:34:12
  TRACK 73 AUDIO
    TITLE "3:cjc005_0626"
    INDEX 01 01:34:73
  TRACK 74 AUDIO
    TITLE "0:"
    INDEX 01 01:36:21
  TRACK 75 AUDIO
    TITLE "4:cjc005_0627"
    INDEX 01 01:36:47
  TRACK 76 AUDIO
    TITLE "0:"
    INDEX 01 01:38:51
  TRACK 77 AUDIO
    TITLE "5:cjc005_0628"
    INDEX 01 01:39:00
  TRACK 78 AUDIO
    TITLE "0:"
    INDEX 01 01:43:11
  TRACK 79 AUDIO
    TITLE "3:cjc005_0629"
    INDEX 01 01:43:64
  TRACK 80 AUDIO
    TITLE "0:"
    INDEX 01 01:45:12
  TRACK 81 AUDIO
    TITLE "4:cjc005_0630"
    INDEX 01 01:45:40
  TRACK 82 AUDIO
    TITLE "0:"
    INDEX 01 01:46:68
  TRACK 83 AUDIO
    TITLE "5:cjc005_0631"
    INDEX 01 01:47:09
  TRACK 84 AUDIO
    TITLE "0:"
    INDEX 01 01:50:39
